<svg width="500" height="500" viewBox="0 0 500 500" fill="none" xmlns="http://www.w3.org/2000/svg">
<path d="M134.614 239.368C134.614 244.476 140.235 247.589 144.564 244.878L283.06 158.156C284.266 157.401 285.661 157 287.085 157H289.854C294.042 157 297.438 160.395 297.438 164.583V239.368C297.438 244.476 303.058 247.588 307.387 244.878L445.925 158.13C447.104 157.392 448.467 157 449.859 157C453.953 157 457.272 160.319 457.272 164.413V244.429C457.272 247.029 455.94 249.448 453.743 250.838L308.74 342.549C307.528 343.316 306.122 343.724 304.687 343.724H302.032C297.844 343.724 294.449 340.329 294.449 336.14V262.847C294.449 257.739 288.829 254.627 284.5 257.338L148.386 342.568C147.18 343.323 145.785 343.724 144.362 343.724H142.198C138.01 343.724 134.615 340.329 134.615 336.14V257.608C134.615 254.019 131.705 251.108 128.115 251.108H49.5832C45.3951 251.108 42 247.713 42 243.525V164.583C42 160.395 45.3951 157 49.5832 157H127.031C131.219 157 134.614 160.395 134.614 164.583V239.368Z" fill="black"/>
<path d="M134.614 239.368C134.614 244.476 140.235 247.589 144.564 244.878L283.06 158.156C284.266 157.401 285.661 157 287.085 157H289.854C294.042 157 297.438 160.395 297.438 164.583V239.368C297.438 244.476 303.058 247.588 307.387 244.878L445.925 158.13C447.104 157.392 448.467 157 449.859 157C453.953 157 457.272 160.319 457.272 164.413V244.429C457.272 247.029 455.94 249.448 453.743 250.838L308.74 342.549C307.528 343.316 306.122 343.724 304.687 343.724H302.032C297.844 343.724 294.449 340.329 294.449 336.14V262.847C294.449 257.739 288.829 254.627 284.5 257.338L148.386 342.568C147.18 343.323 145.785 343.724 144.362 343.724H142.198C138.01 343.724 134.615 340.329 134.615 336.14V257.608C134.615 254.019 131.705 251.108 128.115 251.108H49.5832C45.3951 251.108 42 247.713 42 243.525V164.583C42 160.395 45.3951 157 49.5832 157H127.031C131.219 157 134.614 160.395 134.614 164.583V239.368Z" fill="black"/>
</svg>
